<svg version="1.2" xmlns="http://www.w3.org/2000/svg" viewBox="0 0 500 500" width="500" height="500">
	<title>contact-svg</title>
	<style>
		.s0 { fill: #e8e1ff } 
		.s1 { fill: #d2bfff } 
		.s2 { fill: #f4f0ff } 
		.s3 { fill: #b7a5ef } 
		.s4 { fill: #363c89 } 
		.s5 { fill: #d8702a } 
		.s6 { fill: #ffbb8e } 
		.s7 { fill: #ed7c2a } 
		.s8 { fill: #eaa27a } 
		.s9 { fill: #4b4df6 } 
		.s10 { fill: #e28e60 } 
		.s11 { fill: #241f3f } 
		.s12 { fill: #737aff } 
		.s13 { fill: #ffffff } 
		.s14 { fill: #ffc278 } 
		.s15 { fill: #ffb583 } 
		.s16 { fill: #a4adff } 
	</style>
	<g id="BACKGROUND">
	</g>
	<g id="OBJECTS">
		<g id="Layer">
			<g id="Layer">
				<g id="Layer">
					<g id="Layer">
						<path id="Layer" class="s0" d="m39.2 319.3c6.7-19.7 24.9-33.1 45.7-39.4 5.3-1.6 11.1-2.4 16-5.2 11.6-6.7 15.1-21.5 15.4-34.5 1.9-72.8 74.4-82.6 88.4-81.3 55.3 5.1 47.8 48 80.1 72 20.9 15.5 53.6-9.1 76.7 3 19.6 10.2 19.5 39.2 37.4 51.9 12.9 9.2 22.8-3.5 44.7 16 28.1 25.1 35.7 94.4-3.3 134l-363.1 1.5c-13.4-2.2-64.4-40.7-38-118z"/>
					</g>
					<g id="Layer">
						<g id="Layer">
							<path id="Layer" class="s1" d="m352.9 403.6c11.2-18.8 24.1-36.6 38.5-53 2.2 6.9 5.9 13.4 10.7 18.8 2.2-6.5-6.6-16.4-3.6-22.6 1.3-2.6 45.9-27.5 80.2-33.4-2 25.1-7 49.2-18.3 74.4-4.4-2.6-12.1-1.9-16.5-4.5 3.1 7 8.9 10 11 14.1-17.3 19.5-42.5 40.3-50.7 43.2-17.1 6.3-35.6 2-52.3-3.5-8.8-3-11-3.6-8.4-12.9 2.1-7.2 5.6-14.2 9.4-20.6z"/>
						</g>
						<g id="Layer">
							<g id="Layer">
								<path id="Layer" class="s2" d="m364.9 439.3c25.2-41 57.8-77.2 96-106.4 1-0.8 0-2.5-1-1.8-38.5 29.5-71.4 65.9-96.8 107.2-0.6 1.1 1.1 2.1 1.8 1z"/>
							</g>
						</g>
						<g id="Layer">
							<g id="Layer">
								<path id="Layer" class="s2" d="m365.9 399c4.9 5.8 7.6 12.5 8.1 20 0 0.5 0.4 1.1 1 1q19.2-2.4 38.6-1.2c1.3 0.1 1.3-1.9 0-2-11.7-0.8-23.1 0.1-34.8 0.8-2.6 0.1-2.5 0.3-3.2-2.1-0.6-2.4-0.9-4.7-1.8-7.1-1.5-4-3.7-7.5-6.5-10.8-0.8-1-2.2 0.4-1.4 1.4z"/>
							</g>
						</g>
						<g id="Layer">
							<g id="Layer">
								<path id="Layer" class="s2" d="m386.4 373.8c4 6.8 6.5 14.1 7.4 21.9 0.1 0.5 0.4 1 1 1q15.8-0.3 31.5 1.4c1.3 0.2 1.3-1.8 0-2-5.2-0.6-10.5-1-15.7-1.2q-4-0.2-7.9-0.2c-1.6-0.1-5.2 0.6-6.5-0.3-1.8-1.4-2.1-8.1-3-10.6-1.3-3.8-3-7.5-5-11-0.7-1.1-2.4-0.1-1.8 1z"/>
							</g>
						</g>
						<g id="Layer">
							<g id="Layer">
								<path id="Layer" class="s2" d="m412.8 349.7c2.6 5.9 4.2 12 4.9 18.4 0.1 0.7 0.6 1.2 1.3 1q17.6-5.1 35.7-8c1.3-0.2 0.7-2.1-0.5-1.9q-18.2 2.9-35.8 8 0.7 0.5 1.3 0.9c-0.7-6.7-2.4-13.2-5.2-19.4-0.5-1.2-2.2-0.1-1.7 1z"/>
							</g>
						</g>
					</g>
					<g id="Layer">
						<g id="Layer">
							<path id="Layer" class="s3" d="m317.6 273c1.3-13.8 3.2-28 9.7-40.3 6.5-12.3 18.3-22.6 32.2-23.6 13.6-1 29 7.3 36.2 18.9 7.3 11.6 6.9 25.9 5.4 39.5-1.6 14.4-6.6 28.2-11.5 41.8-14.7 40.1-28.2 69.2-52.9 104-25.3 35.9-54.4 31-40.3 12.7 28.2-48 16.4-99.5 21.2-153z"/>
						</g>
						<g id="Layer">
							<g id="Layer">
								<path id="Layer" class="s2" d="m305.6 442.7c14.7-21.7 24.6-47 33.5-71.6 11.2-31.1 20.2-63.2 25.9-95.7 2.7-15.7 4.7-31.5 4.7-47.4 0-1.3-2-1.3-2 0-0.1 30.3-6.4 60.5-14.1 89.6-8 30.3-18 60.2-30.8 88.7-5.5 12.2-11.4 24.3-18.9 35.4-0.7 1.1 1 2.1 1.7 1z"/>
							</g>
						</g>
						<g id="Layer">
							<g id="Layer">
								<path id="Layer" class="s2" d="m339.8 233.9c7.3 13.3 14.2 26.9 24.6 38.1 0.3 0.3 0.8 0.4 1.2 0.2 10.4-5.9 21.9-9.6 31.8-16.7 1-0.7 0-2.4-1-1.7-5.1 3.6-10.6 6.5-16.2 9.2-4.3 2.1-9.2 5.2-13.8 6.5-1.7 0.5-0.5 0.6-1.8-0.1-1-0.7-2.5-3-3.3-3.9-2.8-3.6-5.3-7.3-7.7-11.1-4.3-7-8.1-14.3-12.1-21.5-0.6-1.1-2.4-0.1-1.7 1z"/>
							</g>
						</g>
						<g id="Layer">
							<g id="Layer">
								<path id="Layer" class="s2" d="m325.5 275.3c10.8 8.3 19.5 19.4 29 29.1 0.6 0.6 1.7 2.2 2.7 2.4 2.3 0.6 7.4-3.3 9.4-4.5 9.2-5.1 17.7-11.2 25.2-18.6 0.9-1-0.5-2.4-1.4-1.5-7 6.9-14.8 12.7-23.4 17.6-2 1.2-7.9 5.4-9.6 4.7-1.4-0.6-3.1-3.2-4.2-4.3-8.4-8.9-16.5-18.8-26.2-26.3-1.1-0.8-2.5 0.6-1.5 1.4z"/>
							</g>
						</g>
					</g>
					<g id="Layer">
						<g id="Layer">
							<path id="Layer" class="s3" d="m99 426.1c-13.6-5.2-42.3-17.4-34.1-26.2 3.8-2.4 8.5-3.4 12.9-2.7 2.4-3-2.2-6.5-5.8-7.7-9.6-3.4-46.4-15-36.5-25.5 3.2-3.9 16.4-2.6 15.8-3.2-10.8-9.8-16.9-15.8-25.3-28.8-5.4-8.2-10-24.6-0.6-27.5 6-0.1 10.8 4.8 14.1 9.8 3.4 4.9 9 13.8 15.1 19.5-0.3-4.4-2.6-27.9 10.1-22.5 8 3.3 11.6 26.7 18.3 35.3 0.9 1.2 2.3 2.4 3.6 1.7 0.8-0.4 1.1-1.4 1.5-2.2 2.3-4.9 10.2-3.8 13.5 0.5 3.2 4.4 3.3 10.2 4 15.6 0.7 5.3 2.6 11.3 7.6 13.5 0.7-3.1 1.5-6.4 3.6-8.7 2.2-2.4 6.2-3.4 8.6-1.3 1.1 1 1.7 2.5 2.2 4 8.4 23.6 25.6 53.5 35.3 75.7-1.9-1.5-53.3-15.2-63.9-19.3z"/>
						</g>
						<g id="Layer">
							<g id="Layer">
								<path id="Layer" class="s2" d="m30.7 323.4c37.2 47.4 84.6 85.4 131.5 122.7 1 0.8 2.4-0.6 1.4-1.4-46.9-37.3-94.3-75.4-131.5-122.8-0.8-1-2.2 0.4-1.4 1.5z"/>
							</g>
						</g>
						<g id="Layer">
							<g id="Layer">
								<path id="Layer" class="s2" d="m45.8 370.6c10.5 2.5 21.4 3.7 32.1 3.7 0.6 0 1.2-0.6 1-1.2-4.9-12.7-10.4-26.1-12.4-39.6-0.2-1.2-2.1-0.7-2 0.6 2 13.5 7.5 26.8 12.5 39.5q0.4-0.6 0.9-1.3c-10.6 0-21.3-1.2-31.6-3.6-1.2-0.3-1.8 1.6-0.5 1.9z"/>
							</g>
						</g>
						<g id="Layer">
							<g id="Layer">
								<path id="Layer" class="s2" d="m76 406.8c6.8 0.7 13.6 1.7 20.4 2 6 0.3 12.8 0.6 18.3-2.1 0.5-0.3 0.6-1 0.3-1.4-8.2-14.8-12.2-31.7-18.9-47.1-0.5-1.2-2.2-0.2-1.7 1 6.7 15.5 10.7 32.3 18.9 47.1q0.2-0.7 0.4-1.4c-5.9 3-13.6 2.2-19.9 1.8-5.9-0.4-11.9-1.3-17.8-1.9-1.3-0.1-1.3 1.9 0 2z"/>
							</g>
						</g>
					</g>
					<g id="Layer">
						<g id="Layer">
							<path id="Layer" class="s1" d="m186.2 400c-11-7-21.9-12.1-32.9-19.1-14.7-9.3-106.1-61.6-99.2-138.8 1.2-13.6 9-29.9 22.3-33.3 39.3-10.1 39.2 39.7 41.3 50.4 4.7 24.6 17.6 47 33.4 66.4 15.9 19.3 34.8 36 53.5 52.6 4 3.7 8.5 8.2 7.9 13.6-0.2 2-1 3.8-1.9 5.6-4.9 10.4-16.8 7.4-24.4 2.6z"/>
						</g>
						<g id="Layer">
							<g id="Layer">
								<path id="Layer" class="s2" d="m77.8 221.5c-1.1 15.1 0.6 28.8 5.9 42.9 4.3 11.5 9.5 22.7 15.6 33.3 14.2 24.8 32.9 46.7 54.6 65.2 14 11.8 29.2 22.2 45.2 31.2 1.1 0.7 2.1-1 1-1.7-49.4-28-91.1-70.1-112.5-123.3-2.5-6.2-5-12.7-6.5-19.2-2-9.3-2-19-1.3-28.4 0.1-1.3-1.9-1.3-2 0z"/>
							</g>
						</g>
						<g id="Layer">
							<g id="Layer">
								<path id="Layer" class="s2" d="m59.9 240.7c6.9 6.9 14 13.2 22.3 18.3 0.6 0.3 1.3 0 1.5-0.6 3-9.6 7.7-19.1 14.2-26.8 0.8-1-0.6-2.4-1.5-1.4-6.7 7.9-11.6 17.7-14.6 27.6q0.7-0.3 1.4-0.6c-8.2-5-15.1-11.2-21.9-17.9-0.9-0.9-2.4 0.5-1.4 1.4z"/>
							</g>
						</g>
						<g id="Layer">
							<g id="Layer">
								<path id="Layer" class="s2" d="m64.7 275.8c6.3 3 12.4 6.2 18.6 9.3 2.9 1.4 5.8 2.9 8.7 4.2 1.2 0.5 2.7 1.5 4 1.3 0.4 0 0.9-0.3 1-0.7 2.5-10.4 5.1-20.8 8.9-30.8 0.4-1.2-1.5-1.7-2-0.5-2.5 6.7-4.4 13.6-6.2 20.5q-1.1 4-2.1 8-0.2 0.9-0.5 1.9c0 0.1 1.1 0.1 0.2-0.6-1.6-1.1-4-1.7-5.8-2.5q-4.2-2-8.3-4.1c-5.2-2.5-10.3-5.2-15.4-7.7-1.2-0.6-2.2 1.2-1.1 1.7z"/>
							</g>
						</g>
						<g id="Layer">
							<g id="Layer">
								<path id="Layer" class="s2" d="m78.8 308.2c11.1 4.8 22.5 9.2 34.3 12.1 0.5 0.1 1.1-0.2 1.2-0.7 2.7-10 3.8-20.1 4.5-30.3 0-1.3-2-1.3-2 0-0.7 10-1.8 20-4.4 29.7q0.6-0.3 1.2-0.7c-11.6-2.8-22.9-7.1-33.8-11.8-1.2-0.5-2.2 1.2-1 1.7z"/>
							</g>
						</g>
					</g>
				</g>
				<g id="Layer">
					<g id="Layer">
						<g id="Layer">
							<path id="Layer" class="s4" d="m73.6 353.8c-1.9-10.5-2.3-22.2 3.8-31 5-7.3 13.8-11.2 22.6-12.6 6.7-1 87.4-7.6 90.3-4.6 2.8 2.7 11.2 7.7 14.6 21.8 4.1 16.9 16.4 89 12.9 104.1-9.6 2.4-101.6 2.9-115.9 3-0.6-5.3-25.2-63.5-28.3-80.7z"/>
						</g>
						<g id="Layer">
							<g id="Layer">
								<g id="Layer">
									<g id="Layer">
										<path id="Layer" class="s5" d="m230.3 282.7c22.3 5 31.1 51.8 34.5 63.2 3.7 12.4 9 24.3 15.8 35.4 3.4 5.6 7.2 12.5 3.9 18.1-2.1 3.6-6.5 5.2-10.6 5.4-8.2 0.3-16.1-3.8-21.9-9.5-5.9-5.8-9.9-13-13.7-20.3-11.2-21.6-17.8-37.9-22.9-61.6-0.2-1.3-2.3-34.7 14.9-30.7z"/>
									</g>
									<g id="Layer">
										<path id="Layer" class="s6" d="m278.9 409.6c2.8 3 15 4.4 16 3.7-1.1-6.3-7.3-2.7-8.1-7.6 1.9-1.3 4.2-0.9 6-0.9 1.7 0 3.2 1.4 3.9 3.2 1 2.6 0.6 3.4 1 6.2 0.4 2.8 3.2 4.8 3.2 3 0-3.2 0-8.2 0-11.4 0.8 2.9 1.4 11.9 5.3 11.1 0.9-4.4-1.1-8.2-1.1-12.6 1.1 3.7 1.1 12.6 4.9 11.3 0.2-4-1.3-8.1-1.1-12.2 0.8 3.6 2.2 11.4 4.3 10.1 0.7-3.9-0.4-8-1.2-11.9-0.5-2.4-0.4-4.6-2.1-6.3-1.1-1.1-15.9-4-22.1-3.6-3.8 0.2-8.8-0.4-11.2 1.6-9.5 7.5-0.9 13.1 2.3 16.3z"/>
									</g>
								</g>
								<g id="Layer">
									<path id="Layer" class="s7" d="m129 328.1c5 24.7 21.8 27.9 24.9 52.9 2.1 16.7-4.9 37.4-9.6 53.5 38.6 1.4 77.7 0.7 106.2-0.5-1.1-23.4-10.4-54.5-8.2-77.8 1.2-13.4 4.2-25.8 2.3-39.1-1.9-13.3-7.7-32.5-14.3-34.4-13-3.8-23.8-7.1-38.7-8.7-6.6-0.7-25.7-2.7-42.2-0.4-10.3 1.5-19.1 3.4-22.8 4.9-24.6 10-2 28.2 2.4 49.6z"/>
								</g>
								<g id="Layer">
									<path id="Layer" class="s8" d="m192.8 301.3c2.4-0.2 12.9-18.9 12.1-21.2-2.8-6.4-8 0.1-9.7-4.7-1.3-3.8 5.3-21.1 1.6-25.6-2.3-2.6-24.4-10.8-28.3-3.3-1.9 3.5-8.8 19.3-8.8 23.5 0 2.4 26.3 31.8 33.1 31.3z"/>
								</g>
								<g id="Layer">
									<g id="Layer">
										<path id="Layer" class="s6" d="m212.6 393.3c1.4 1.6 4 7.3 5.6 12.2 0.5 1.5 1.3 6.6 1.3 6.6-4.1 2-5.5-7.8-6.9-10.6-0.4 3.1 0.2 14.3-0.9 14.2-3.8-0.9-3.4-9.4-3.1-13.5-0.4 2.7-1.1 5.2-1.9 7.8-0.8 2.6-1.8 5.1-3 6.4-2.5-0.4-0.9-8.2-0.4-11.7-1.4 6-5.1 12.2-5.1 12.2-2.5 0-2.3-3.6-1.5-5.7 0.8-2 2.8-4.5 1.7-6.4 0.2 1.8-3.5 4.4-5.2 4.9-1.8 0.5-6.7-1.2-8.4-1.7-8.4-2.4-27.7-1.6-25.1-10.9 1.8-6.3 9.9-11.6 15.8-10.7 5.1 0.8 12.3 6.9 18.1 6.9 10.4 0 14.9-1.6 19 0z"/>
									</g>
									<g id="Layer">
										<path id="Layer" class="s5" d="m185.5 388.5c-10.5-6-54.1-25.1-54.4-26.1-1.5-3.6 19.2-38.4 20.5-48.7 1.3-10.2 1.2-19.2-6.2-26.5-9.7-9.7-18.8-8.7-18.8-8.7-6.8 2.4-8.6 4.6-12.1 8-4.9 4.7-7.7 11.2-10.4 17.5-8 18.5-16.1 37.1-20.8 56.7-1.3 5.4-2.3 11.2-0.4 16.3 1.4 3.5 4 6.3 6.8 8.7 11.6 9.6 27.3 11.9 42.1 13.8 15.4 2 31.4 6.5 46.8 8.5 3.2 0.4 10.2-17.7 6.9-19.5z"/>
									</g>
								</g>
								<g id="Layer">
									<path id="Layer" class="s5" d="m149.4 274.7c0 4.1 3.2 8 4.9 11.7q4.4 9.5 8.7 18.9 5.5-7.3 11.1-14.5c5.2 5.8 11.8 10.3 19.1 13.2q5.1-6.6 10.3-13.3c1.4 4.2 3.3 8.2 5.5 12 2-9.8 3.8-21-2.3-29-2.8-3.8-7.2-6.4-12-7-1.8 6 2.3 12.2 2.3 18.4-0.1 5.1-2.8 9.8-5.5 14.1q-5.1-3.3-9.9-7.1c-1.6-1.3-3.2-2.7-4-4.6-0.7-1.6-0.8-3.4-1.7-4.9-1-1.5-2.6-2.4-4-3.6-5.6-4.7-9.2-14-9.2-19.2-4.4 0-13.3 7.1-13.3 14.9z"/>
								</g>
								<g id="Layer">
									<g id="Layer">
										<path id="Layer" class="s5" d="m193.2 308.8c5.5 26 10.7 52.4 9.1 79.2 0 1.3 2 1.3 2 0 1.6-26.9-3.6-53.6-9.2-79.8-0.3-1.2-2.2-0.7-1.9 0.6z"/>
									</g>
								</g>
							</g>
							<g id="Layer">
								<g id="Layer">
									<path id="Layer" class="s9" d="m203.7 232.3c-0.7 4.1-0.5 8.6 1.8 12.1 2.3 3.5 7.1 5.6 10.9 3.7 4.8-2.3 5.3-9 4.7-14.3-0.4-3.4-0.9-6.9-3-9.6-6.8-9.1-13.3 1.3-14.4 8.1z"/>
								</g>
								<g id="Layer">
									<path id="Layer" class="s6" d="m171.3 250.2c4.1 8.6 12.3 15.4 21.6 16.7 3.8 0.6 7.8 0.2 10.9-1.9 2.1-1.5 3.6-3.5 4.9-5.7 6-9.5 9.5-20.5 10-31.7 0.4-8.9-1.7-18.8-9-23.7-5.6-3.8-12.8-3.7-19.5-3.5-3.5 0.1-7.1 0.2-10.2 1.8-3.2 1.6-5.4 4.6-7.5 7.5-7.7 10.6-7 28.9-1.2 40.5z"/>
								</g>
								<g id="Layer">
									<g id="Layer">
										<path id="Layer" class="s10" d="m192 253.9c2.9 2.7 7 3.5 10.7 2 1.2-0.5 0.7-2.4-0.5-1.9-3 1.2-6.3 0.7-8.7-1.6-1-0.8-2.4 0.6-1.5 1.5z"/>
									</g>
								</g>
								<g id="Layer">
									<path id="Layer" class="s11" d="m187.6 214.3c0.6 1.1 0.6 2.4 0.9 3.6 0.7 2.5 3.1 4.6 5.7 4.9 2.7 0.3 5.4-1.1 6.7-3.4 0.5-0.8 0.8-1.8 1.5-2.4 1.6-1.3 4.1-0.2 5.5 1.4 1.4 1.6 2.3 4 4.3 4.5 5.9 1.3 7.3-2.9 8.2-6.7 0.9 2.7 7.1 1.7 8.9-0.4 1.9-2.1 1.6-5.5 0-7.8-1.6-2.3-4.3-3.7-6.9-4.7-1-0.3-2-0.7-2.7-1.4-2.8-2.5-0.5-7.1-1.3-10.7-0.9-4.1-6.3-6-10-4-2.7 1.5-4.5 4.5-7.4 5.5-0.1-0.7-9.6-4.4-9.7-1.8 0 0-4-2.9-10.4-1.2-3.1 0.7-6 3.6-6 6.8-2.9-0.6-3.5-0.6-6.3 0.2-2.8 0.9-5.4 3.2-5.7 6.2-0.1 1 0.1 2.1-0.2 3.1-0.6 2.7-3.9 3.6-4.7 6-1.1 3.4 0.4 6.5 0.8 10.2 0.8 5.9-0.4 11.1 7.2 10.6 5.1-0.3 9.1 2.2 10.8-1.9 0.8-2 5.5-26.8 10.8-16.6z"/>
								</g>
								<g id="Layer">
									<path id="Layer" class="s9" d="m155.8 229.4c-0.7 4.2-0.1 9.7 2.2 13.2 2.3 3.5 7.1 5.5 10.9 3.7 4.8-2.4 5.3-9 4.7-14.4-0.4-3.4-1-6.9-3-9.6-6.9-9-13.7 0.3-14.8 7.1z"/>
								</g>
								<g id="Layer">
									<g id="Layer">
										<path id="Layer" class="s9" d="m166.9 222.3c0.1-8.5 2.1-18.2 9.4-23.5 5.1-3.7 15.2-7.4 24.7-6.1 0 0-2.6-2.4-5.3-2.9-7.8-1.2-15.7 1-22 5.7-8.3 6.1-10.9 17-11 26.8-0.1 2.8 4.1 2.8 4.2 0z"/>
									</g>
								</g>
								<g id="Layer">
									<g id="Layer">
										<path id="Layer" class="s9" d="m164.6 239c1.7 10.6 10.7 19.9 21.4 20.9 1.3 0.1 1.3-1.9 0-2-9.9-0.9-17.9-9.8-19.4-19.4-0.2-1.3-2.2-0.7-2 0.5z"/>
									</g>
								</g>
								<g id="Layer">
									<path id="Layer" class="s9" d="m194.1 258.1c0 2.6-2.1 4.7-4.7 4.7-2.6 0-4.7-2.1-4.7-4.7 0-2.6 2.1-4.7 4.7-4.7 2.6 0 4.7 2.1 4.7 4.7z"/>
								</g>
								<g id="Layer">
									<path id="Layer" class="s10" d="m203.9 242.6c0.3 2 1.2 3.8 2.6 5.3 0.5 0.4 1 0.9 0.9 1.4-0.1 1-1.6 1.2-2.7 1-2.2-0.3-4.3-1-6.3-2q-0.2-0.1-0.4-0.3c-0.3-0.2-0.4-0.5-0.4-0.8-0.3-1.8 0.6-3.4 1.2-5.1 0.6-1.9 0.4-11.2 3.6-10.5 3.7 0.7 1.3 8.9 1.5 11z"/>
								</g>
								<g id="Layer">
									<path id="Layer" class="s12" d="m157.7 236.1c0 2.1 0.3 4.5 1.9 5.9 1.8 1.6 5.1 1.1 6.3-1.1 0.5-1 0.6-2.2 0.7-3.4 0.2-3 0.3-6.1-0.4-9.1-0.5-2.5-2-5.2-4.6-5.6-4-0.5-3.9 10.9-3.9 13.3z"/>
								</g>
								<g id="Layer">
									<path id="Layer" class="s11" d="m195.3 233.9c0 1.7-0.9 3-1.9 3-1 0-1.8-1.3-1.8-3 0-1.7 0.8-3 1.8-3 1 0 1.9 1.3 1.9 3z"/>
								</g>
								<g id="Layer">
									<path id="Layer" class="s11" d="m210.9 237.7c-1 0-1.9-1.3-1.9-3 0-1.7 0.9-3 1.9-3 1 0 1.8 1.3 1.8 3 0 1.7-0.8 3-1.8 3z"/>
								</g>
								<g id="Layer">
									<g id="Layer">
										<path id="Layer" class="s11" d="m188.5 227.8c1.5-1.6 3.7-2 5.7-1.3 1.2 0.5 1.8-1.5 0.6-1.9-2.7-1-5.7-0.3-7.7 1.8-0.9 0.9 0.5 2.3 1.4 1.4z"/>
									</g>
								</g>
								<g id="Layer">
									<g id="Layer">
										<path id="Layer" class="s11" d="m209.8 227.3c1.6 0.1 2.9 0.7 4.2 1.6 1.1 0.7 2.1-1 1-1.7-1.5-1.1-3.3-1.7-5.2-1.9-1.3-0.1-1.3 1.9 0 2z"/>
									</g>
								</g>
							</g>
						</g>
					</g>
					<g id="Layer">
						<g id="Layer">
							<g id="Layer">
								<path id="Layer" class="s3" d="m454.7 444.3h-397.7c-4.8 0-8.6-3.8-8.6-8.6v-1c0-4.8 3.8-8.7 8.6-8.7h397.7c4.8 0 8.7 3.9 8.7 8.7v1c0 4.8-3.9 8.6-8.7 8.6z"/>
							</g>
							<g id="Layer">
								<path id="Layer" class="s1" d="m442.5 444.3h-373.3v0.7c0 6.8 5.5 12.2 12.2 12.2h349c6.7 0 12.1-5.4 12.1-12.2z"/>
							</g>
						</g>
						<g id="Layer">
							<g id="Layer">
								<path id="Layer" class="s9" d="m383.9 388h-140.1c-5.5 0-9.7-4.7-9.1-10.2l8.6-80.6c0.5-4.7 4.4-8.2 9.1-8.2h140.1c5.4 0 9.7 4.7 9.1 10.1l-8.6 80.7c-0.5 4.6-4.4 8.2-9.1 8.2z"/>
							</g>
							<g id="Layer">
								<path id="Layer" class="s4" d="m389.2 388h-140.1c-5.5 0-9.7-4.7-9.1-10.2l8.6-80.6c0.5-4.7 4.4-8.2 9.1-8.2h140.1c5.4 0 9.7 4.7 9.1 10.1l-8.6 80.7c-0.5 4.6-4.4 8.2-9.1 8.2z"/>
							</g>
							<g id="Layer">
								<path id="Layer" class="s9" d="m325.6 346.8h-9.3c-3.4 0-6.3 2.9-6.3 6.3v67.3h21.9v-67.3c0-3.4-2.8-6.3-6.3-6.3z"/>
							</g>
							<g id="Layer">
								<path id="Layer" class="s4" d="m284.7 420.4h70.4v5.6h-70.4z"/>
							</g>
							<g id="Layer">
								<path id="Layer" class="s9" d="m210.9 420.4h82.9v5.6h-82.9z"/>
							</g>
							<g id="Layer">
								<path id="Layer" class="s9" d="m177.2 413.3h-7.9c-5.3 0-9.6 4.4-9.6 9.7 0 1.7 1.4 3 3 3h21.1c1.7 0 3-1.3 3-3 0-5.3-4.3-9.7-9.6-9.7z"/>
							</g>
						</g>
					</g>
				</g>
			</g>
			<g id="Layer">
				<g id="Layer">
					<path id="Layer" class="s1" d="m311 111.8c-0.8-5.5-4.3-10.3-5.5-15.7-2.6-10.7 3.5-21.7 2.2-32.6-1.8-15-18.9-25.2-33.6-21.9-6.2 1.5-10 2.8-15.8 1.5-17.2-3.7-29.9 4.4-33.3 13.8-8.3 22.4 4.3 26 7.5 44.8 1.4 8-11 21 4.7 39.5 5.3 6.3 13.5 9.9 21.6 11.3-1.7 4-4.2 8.5-7 10.7 0 0 11.2-3.1 18.1-9.7 19.6 0.3 46.4-6.5 41.1-41.7z"/>
				</g>
				<g id="Layer">
					<g id="Layer">
						<path id="Layer" class="s9" d="m283.3 116.2l-5.3-6.6c-1.5-1.8-4.2-2.1-6-0.6l-1.6 1.3c-1 0.7-2.3 0.6-3.1-0.4l-6.5-8.1-0.8-1-6.6-8.1c-0.7-1-0.6-2.3 0.4-3.1l1.6-1.3c1.8-1.5 2.1-4.2 0.6-6l-5.3-6.6c-1.5-1.9-4.2-2.2-6.1-0.7l-1.7 1.4c-4.5 3.7-5.2 10.3-1.6 14.8l4.1 5.1 7.9 9.9 0.8 0.9 7.9 9.9 4.1 5.1c3.7 4.5 10.3 5.2 14.8 1.6l1.8-1.4c1.8-1.5 2.1-4.2 0.6-6.1z"/>
					</g>
					<g id="Layer">
						<path id="Layer" class="s13" d="m277.2 101.2q-0.1 0-0.2 0c-0.5-0.1-0.9-0.6-0.8-1.1 0.7-4.2 0.1-7.5-1.8-10-3.4-4.1-9.7-4.4-9.7-4.4-0.6 0-1-0.5-1-1 0-0.6 0.5-1 1-1 0.3 0 7.3 0.3 11.2 5.2 2.4 2.9 3.1 6.8 2.3 11.5-0.1 0.5-0.5 0.8-1 0.8z"/>
					</g>
					<g id="Layer">
						<path id="Layer" class="s13" d="m283.5 100.9q-0.1 0-0.1 0c-0.6-0.1-1-0.5-0.9-1.1 1.7-17.9-15.5-20.1-16.2-20.2-0.6 0-1-0.5-0.9-1.1 0.1-0.5 0.6-0.9 1.1-0.8 0.2 0 19.8 2.5 18 22.3-0.1 0.5-0.5 0.9-1 0.9z"/>
					</g>
					<g id="Layer">
						<path id="Layer" class="s13" d="m289.7 99.8c-0.5 0-1-0.4-1-1-0.1-20.4-19.3-24.8-20.2-25-0.5-0.1-0.8-0.7-0.7-1.2 0.1-0.6 0.6-0.9 1.2-0.8 0.2 0.1 21.6 5 21.7 27 0 0.6-0.4 1-1 1q0 0 0 0z"/>
					</g>
				</g>
			</g>
			<g id="Layer">
				<g id="Layer">
					<path id="Layer" class="s14" d="m466.3 115.1c-5.7-6-14.4-7.8-21.8-11.4-10.9-5.2-19.3-14.4-27-23.6-8.4-10.1-19-22.9-33.2-23.1-14.9-0.3-30 8.9-39.4 19.9-10.6 12.4-16.3 28.4-18.5 44.5-1.6 12-1.4 24.6 3.9 35.5 1.4 2.7 3.1 5.4 5.1 7.7-2.3 4.2-5.8 9.2-9.9 11.5 0 0 10.9-0.3 18-4.6 4.6 2.9 9.9 4.5 15.3 4.2 9.1-0.4 18.1-5.7 26.7-3.1 4.4 1.3 7.9 4.4 11.5 7.1 13.8 10.2 32.8 14.6 48.4 7.6 18.3-8.2 27.5-29.7 27.6-49.8 0.1-8-1.3-16.6-6.7-22.4z"/>
				</g>
				<g id="Layer">
					<g id="Layer">
						<path id="Layer" class="s13" d="m357.2 106.3h75.4v54.7h-75.4z"/>
					</g>
					<g id="Layer">
						<g id="Layer">
							<path id="Layer" class="s9" d="m363.5 112c-0.9 0-1.5-0.6-1.5-1.5v-7.2c0-0.9 0.6-1.5 1.5-1.5 0.8 0 1.5 0.6 1.5 1.5v7.2c0 0.9-0.7 1.5-1.5 1.5z"/>
						</g>
						<g id="Layer">
							<path id="Layer" class="s9" d="m372.4 112c-0.8 0-1.5-0.6-1.5-1.5v-7.2c0-0.9 0.7-1.5 1.5-1.5 0.9 0 1.5 0.6 1.5 1.5v7.2c0 0.9-0.6 1.5-1.5 1.5z"/>
						</g>
						<g id="Layer">
							<path id="Layer" class="s9" d="m381.4 112c-0.8 0-1.5-0.6-1.5-1.5v-7.2c0-0.9 0.7-1.5 1.5-1.5 0.8 0 1.5 0.6 1.5 1.5v7.2c0 0.9-0.7 1.5-1.5 1.5z"/>
						</g>
						<g id="Layer">
							<path id="Layer" class="s9" d="m390.4 112c-0.8 0-1.5-0.6-1.5-1.5v-7.2c0-0.9 0.7-1.5 1.5-1.5 0.8 0 1.5 0.6 1.5 1.5v7.2c0 0.9-0.7 1.5-1.5 1.5z"/>
						</g>
						<g id="Layer">
							<path id="Layer" class="s9" d="m399.4 112c-0.9 0-1.5-0.6-1.5-1.5v-7.2c0-0.9 0.6-1.5 1.5-1.5 0.8 0 1.5 0.6 1.5 1.5v7.2c0 0.9-0.7 1.5-1.5 1.5z"/>
						</g>
						<g id="Layer">
							<path id="Layer" class="s9" d="m408.3 112c-0.8 0-1.5-0.6-1.5-1.5v-7.2c0-0.9 0.7-1.5 1.5-1.5 0.9 0 1.5 0.6 1.5 1.5v7.2c0 0.9-0.6 1.5-1.5 1.5z"/>
						</g>
						<g id="Layer">
							<path id="Layer" class="s9" d="m417.3 112c-0.8 0-1.5-0.6-1.5-1.5v-7.2c0-0.9 0.7-1.5 1.5-1.5 0.8 0 1.5 0.6 1.5 1.5v7.2c0 0.9-0.7 1.5-1.5 1.5z"/>
						</g>
						<g id="Layer">
							<path id="Layer" class="s9" d="m426.3 112c-0.8 0-1.5-0.6-1.5-1.5v-7.2c0-0.9 0.7-1.5 1.5-1.5 0.8 0 1.5 0.6 1.5 1.5v7.2c0 0.9-0.7 1.5-1.5 1.5z"/>
						</g>
					</g>
					<g id="Layer">
						<g id="Layer">
							<path id="Layer" class="s1" d="m378.7 118.8h7.6v7.6h-7.6z"/>
						</g>
						<g id="Layer">
							<path id="Layer" class="s1" d="m390.7 118.8h7.6v7.6h-7.6z"/>
						</g>
						<g id="Layer">
							<path id="Layer" class="s1" d="m402.7 118.8h7.6v7.6h-7.6z"/>
						</g>
						<g id="Layer">
							<path id="Layer" class="s14" d="m414.7 118.8h7.6v7.6h-7.6z"/>
						</g>
					</g>
					<g id="Layer">
						<g id="Layer">
							<path id="Layer" class="s14" d="m366.7 129.8h7.6v7.7h-7.6z"/>
						</g>
						<g id="Layer">
							<path id="Layer" class="s1" d="m378.7 129.8h7.6v7.7h-7.6z"/>
						</g>
						<g id="Layer">
							<path id="Layer" class="s1" d="m390.7 129.8h7.6v7.7h-7.6z"/>
						</g>
						<g id="Layer">
							<path id="Layer" class="s1" d="m402.7 129.8h7.6v7.7h-7.6z"/>
						</g>
						<g id="Layer">
							<path id="Layer" class="s14" d="m414.7 129.8h7.6v7.7h-7.6z"/>
						</g>
					</g>
					<g id="Layer">
						<g id="Layer">
							<path id="Layer" class="s14" d="m366.7 140.9h7.6v7.6h-7.6z"/>
						</g>
						<g id="Layer">
							<path id="Layer" class="s1" d="m378.7 140.9h7.6v7.6h-7.6z"/>
						</g>
						<g id="Layer">
							<path id="Layer" class="s1" d="m390.7 140.9h7.6v7.6h-7.6z"/>
						</g>
						<g id="Layer">
							<path id="Layer" class="s1" d="m402.7 140.9h7.6v7.6h-7.6z"/>
						</g>
					</g>
				</g>
			</g>
			<g id="Layer">
				<g id="Layer">
					<path id="Layer" class="s15" d="m84.5 101.4c-20 14.7-44.6-0.1-57.8 28.3-5.5 11.7-3.3 23.1 2.2 35.6 6.3 14.5 15.4 20.2 28.4 20.9 7.6 0.4 13.9-2.9 21.3-7.4 5.3 3.2 12.5 6.7 19.2 6.7 0 0-5.8-4.2-7.7-13.8 2.8-1.6 5.8-3.2 9-4.8 20.4-9.7 27.7-0.9 40-15.8 20.2-24.4-12.7-80.1-54.6-49.7z"/>
				</g>
				<g id="Layer">
					<g id="Layer">
						<path id="Layer" class="s13" d="m106.4 115.1l7.9 27.9c0.3 1.2 0 2.4-0.6 3.4-0.6 0.7-1.3 1.3-2.2 1.5l-50.4 14.2c-0.9 0.2-1.8 0.2-2.6-0.2-1.1-0.5-2-1.4-2.3-2.6l-7.9-27.8c-0.3-1.3 0-2.5 0.6-3.4 0.6-0.8 1.3-1.3 2.2-1.6l50.4-14.1c0.9-0.3 1.8-0.2 2.6 0.1 1.1 0.5 2 1.4 2.3 2.6z"/>
					</g>
					<g id="Layer">
						<path id="Layer" class="s16" d="m89.8 134.8l23.9 11.6c-0.6 0.7-1.3 1.3-2.2 1.5l-2.5 0.7-21.4-10.3-3.2 4.9c-0.3 0.4-0.7 0.7-1.2 0.9-0.4 0.1-0.9 0.1-1.4-0.2l-5.3-2.5-12.9 20-5.1 0.5 14.3-22.3-23.9-11.5c0.6-0.8 1.3-1.3 2.2-1.6l2.5-0.7 28.3 13.7 17.1-26.4 2.5-0.7c0.9-0.3 1.8-0.2 2.6 0.1z"/>
					</g>
				</g>
			</g>
			<g id="Layer">
				<g id="Layer">
					<path id="Layer" class="s16" d="m208.5 96c-2.1-3.5-5.6-6.4-6.2-10.5-0.2-2-0.2-4.1 0.5-5.9 4.9-11.3 1.4-24.1-8.7-31.7-8-6-18.9-7.4-27.8-3.3-13.4 6.1-21.1 18.1-14.4 37.2 1.8 5.3 4.3 10.6 4.3 16.3 0 4.4-3.1 15.1 6.2 24.9 5.6 5.9 12.6 8.3 19.9 7.9 0.9 2.7 1.8 7.4 0.8 14.3 0 0 8.9-7.5 9.6-16.7 21.8-7.5 19-27.1 15.8-32.5z"/>
				</g>
				<g id="Layer">
					<g id="Layer">
						<path id="Layer" class="s13" d="m176.3 103.2c-1.9 0-3.5 1.6-3.5 3.6 0 2 1.6 3.6 3.5 3.6 2 0 3.6-1.6 3.6-3.6 0-2-1.6-3.6-3.6-3.6z"/>
					</g>
					<g id="Layer">
						<path id="Layer" class="s13" d="m186 70.8q-3.7-3.6-9.8-3.6-5.9 0-9.5 3.6-1.7 1.7-2.6 3.7c-1.1 2.4 0.3 5.2 2.6 5.6 1.4 0.2 2.8-0.7 3.4-2.2q0.7-1.8 1.8-2.8 1.9-1.8 4.6-1.8 2.8 0 4.5 1.7 1.6 1.7 1.6 4.1 0 1.7-0.9 3.1-0.6 0.9-3.8 3.7-3.1 2.9-4.1 5.2c-0.3 0.7-0.6 2.2-0.7 3.8-0.2 2.1 1.2 4 3.1 4 1.6 0 2.9-1.3 3.2-3q0.1-1 0.3-1.6 0.6-1.3 2.8-3.5 4.4-4.1 5.8-6.5 1.3-2.3 1.3-5 0-4.8-3.6-8.5z"/>
					</g>
				</g>
			</g>
		</g>
	</g>
</svg>